<svg width="552" height="552" viewBox="0 0 552 552" fill="none" xmlns="http://www.w3.org/2000/svg">
<g clip-path="url(#clip0)">
<path d="M276 0.000217526C123.556 0.000217526 0 123.579 0 276C0 428.444 123.556 552 276 552C428.421 552 552 428.444 552 276C552.011 249.986 548.349 224.101 541.121 199.111C539.766 195.821 537.193 193.18 533.938 191.742C530.682 190.304 526.998 190.179 523.652 191.393C520.307 192.607 517.56 195.066 515.985 198.257C514.41 201.448 514.129 205.125 515.2 208.518H515.154C521.249 230.207 524.4 252.862 524.4 276C524.49 308.634 518.106 340.962 505.619 371.112C493.132 401.263 474.788 428.637 451.651 451.651C428.638 474.79 401.263 493.133 371.113 505.621C340.962 518.108 308.634 524.491 276 524.4C243.366 524.49 211.038 518.106 180.888 505.619C150.737 493.132 123.363 474.789 100.349 451.651C77.2096 428.639 58.8651 401.265 46.3776 371.114C33.8901 340.963 27.5077 308.635 27.6 276C27.5103 243.366 33.8938 211.039 46.3812 180.888C58.8685 150.738 77.2117 123.363 100.349 100.349C123.362 77.2098 150.736 58.8653 180.886 46.3778C211.037 33.8903 243.366 27.5079 276 27.6002C335.248 27.6002 391.299 48.2082 436.034 86.0202C433.207 93.1965 432.925 101.125 435.236 108.484C437.548 115.843 442.312 122.186 448.735 126.457C455.158 130.728 462.85 132.668 470.53 131.953C478.21 131.238 485.413 127.912 490.937 122.529C496.461 117.145 499.973 110.031 500.886 102.372C501.799 94.7134 500.059 86.9729 495.955 80.4419C491.852 73.9109 485.633 68.9842 478.337 66.4835C471.04 63.9828 463.107 64.0593 455.86 66.7002C405.86 23.5929 342.017 -0.082789 276 0.000217526V0.000217526ZM242.88 135.24L146.28 385.986H206.77L222.571 343.482H313.858L297.321 296.516H237.222L276.322 188.623L345.874 385.963H406.387L309.81 135.24H242.88Z" fill="url(#paint0_linear)"/>
</g>
<defs>
<linearGradient id="paint0_linear" x1="169.474" y1="-19.3684" x2="302.632" y2="607.684" gradientUnits="userSpaceOnUse">
<stop offset="0.0175425" stop-color="#2ECBD5"/>
<stop offset="0.380208" stop-color="#E178AB"/>
<stop offset="0.646297" stop-color="#1CB5A2"/>
<stop offset="1" stop-color="#26AA9A"/>
</linearGradient>
<clipPath id="clip0">
<rect width="552" height="552" fill="white"/>
</clipPath>
</defs>
</svg>
